<svg width="75" height="65" viewBox="0 0 75 65" fill="none" xmlns="http://www.w3.org/2000/svg">
<path d="M18.5712 56.8218V53.5828C18.589 53.3104 18.5517 53.0371 18.4618 52.7811C18.3719 52.5252 18.2313 52.2924 18.0496 52.0983C17.8678 51.9042 17.649 51.7532 17.4077 51.6555C17.1664 51.5578 16.9082 51.5155 16.6502 51.5315C16.3125 51.5081 15.9751 51.5809 15.6731 51.7423C15.3712 51.9038 15.1158 52.1479 14.9336 52.4492C14.7675 52.1569 14.5298 51.9174 14.2457 51.7559C13.9616 51.5944 13.6415 51.5169 13.3191 51.5315C13.0381 51.5165 12.7583 51.5793 12.5074 51.7138C12.2565 51.8482 12.0432 52.0496 11.8886 52.298V51.6611H10.8259V56.8218H11.8988V53.9823C11.876 53.8058 11.8904 53.6262 11.9409 53.4563C11.9914 53.2863 12.0768 53.1303 12.191 52.9993C12.3052 52.8683 12.4454 52.7656 12.6016 52.6985C12.7577 52.6314 12.926 52.6015 13.0943 52.6111C13.7994 52.6111 14.157 53.097 14.157 53.9715V56.8433H15.2299V53.9823C15.208 53.806 15.223 53.6268 15.2739 53.4573C15.3247 53.2878 15.4102 53.1321 15.5242 53.0013C15.6382 52.8706 15.778 52.7678 15.9337 52.7004C16.0895 52.633 16.2573 52.6025 16.4254 52.6111C17.1509 52.6111 17.4983 53.097 17.4983 53.9715V56.8433L18.5712 56.8218ZM34.4448 51.6611H32.6975V50.0956H31.6246V51.6611H30.6539V52.6867H31.6451V55.0619C31.6451 56.2603 32.0844 56.9729 33.3413 56.9729C33.8108 56.9746 34.2712 56.8361 34.6696 56.5734L34.3631 55.6126C34.0781 55.7922 33.7546 55.8925 33.423 55.9041C32.9121 55.9041 32.718 55.5586 32.718 55.0403V52.6867H34.455L34.4448 51.6611ZM43.5081 51.5315C43.2491 51.5234 42.9927 51.5894 42.7661 51.7224C42.5395 51.8554 42.3511 52.0506 42.2207 52.2872V51.6611H41.1682V56.8218H42.2309V53.9283C42.2309 53.0754 42.5783 52.6003 43.2527 52.6003C43.48 52.5971 43.7057 52.6411 43.9169 52.7299L44.2438 51.6503C44.0011 51.5585 43.7455 51.5111 43.4877 51.5099L43.5081 51.5315ZM29.8058 52.0713C29.2043 51.6934 28.5127 51.5061 27.8133 51.5315C26.577 51.5315 25.7697 52.1577 25.7697 53.1833C25.7697 54.0255 26.3624 54.5437 27.4557 54.7056L27.9666 54.7812C28.549 54.8676 28.8249 55.0295 28.8249 55.3211C28.8249 55.7205 28.4366 55.9472 27.7111 55.9472C27.1276 55.9651 26.5553 55.7749 26.0865 55.4074L25.5756 56.2819C26.1946 56.7386 26.936 56.9733 27.6907 56.9513C29.1008 56.9513 29.9182 56.2495 29.9182 55.2671C29.9182 54.2846 29.2745 53.8851 28.2118 53.7232L27.7009 53.6476C27.2411 53.5828 26.8733 53.4857 26.8733 53.1402C26.8733 52.7947 27.2207 52.5356 27.8031 52.5356C28.3414 52.5422 28.8691 52.6946 29.3358 52.9782L29.8058 52.0713ZM58.268 51.5315C58.0089 51.5234 57.7526 51.5894 57.526 51.7224C57.2994 51.8554 57.111 52.0506 56.9806 52.2872V51.6611H55.9281V56.8218H56.9908V53.9283C56.9908 53.0754 57.3382 52.6003 58.0126 52.6003C58.2399 52.5971 58.4655 52.6411 58.6767 52.7299L59.0037 51.6503C58.761 51.5585 58.5053 51.5111 58.2476 51.5099L58.268 51.5315ZM44.5759 54.2306C44.5633 54.5933 44.6224 54.9547 44.7496 55.2918C44.8768 55.629 45.0691 55.9343 45.3144 56.1884C45.5596 56.4424 45.8524 56.6396 46.1739 56.7673C46.4954 56.8949 46.8386 56.9503 47.1815 56.9297C47.8196 56.964 48.4466 56.7445 48.939 56.3143L48.4281 55.4074C48.0608 55.7034 47.6128 55.8662 47.1509 55.8717C46.7581 55.8381 46.3916 55.6495 46.1244 55.3434C45.8572 55.0373 45.7089 54.6362 45.7089 54.2198C45.7089 53.8034 45.8572 53.4023 46.1244 53.0962C46.3916 52.7901 46.7581 52.6015 47.1509 52.568C47.6128 52.5734 48.0608 52.7362 48.4281 53.0322L48.939 52.1253C48.4466 51.6952 47.8196 51.4756 47.1815 51.5099C46.8386 51.4894 46.4954 51.5447 46.1739 51.6724C45.8524 51.8 45.5596 51.9972 45.3144 52.2512C45.0691 52.5053 44.8768 52.8107 44.7496 53.1478C44.6224 53.4849 44.5633 53.8464 44.5759 54.209V54.2306ZM54.5282 54.2306V51.6611H53.4656V52.2872C53.2851 52.0419 53.052 51.8454 52.7855 51.714C52.519 51.5826 52.2268 51.52 51.9329 51.5315C51.2554 51.5315 50.6056 51.8159 50.1266 52.322C49.6475 52.8282 49.3784 53.5148 49.3784 54.2306C49.3784 54.9465 49.6475 55.633 50.1266 56.1392C50.6056 56.6454 51.2554 56.9297 51.9329 56.9297C52.2268 56.9412 52.519 56.8786 52.7855 56.7472C53.052 56.6158 53.2851 56.4193 53.4656 56.174V56.8002H54.5282V54.2306ZM50.5739 54.2306C50.5908 53.9268 50.6915 53.6349 50.8635 53.3908C51.0354 53.1467 51.2712 52.9611 51.5418 52.8568C51.8123 52.7525 52.1058 52.7341 52.3862 52.8038C52.6665 52.8735 52.9214 53.0284 53.1195 53.2493C53.3176 53.4701 53.4503 53.7474 53.5011 54.0469C53.552 54.3464 53.5188 54.6551 53.4057 54.935C53.2927 55.2148 53.1046 55.4537 52.8647 55.622C52.6248 55.7903 52.3435 55.8809 52.0555 55.8825C51.8532 55.8852 51.6526 55.8436 51.4662 55.7604C51.2799 55.6772 51.1118 55.5542 50.9727 55.399C50.8335 55.2439 50.7262 55.06 50.6576 54.8589C50.589 54.6578 50.5605 54.4439 50.5739 54.2306ZM37.7503 51.5315C37.0728 51.5415 36.4268 51.8355 35.9545 52.3488C35.4821 52.862 35.2221 53.5525 35.2316 54.2684C35.2411 54.9842 35.5193 55.6668 36.0051 56.1659C36.4908 56.665 37.1443 56.9397 37.8218 56.9297C38.5569 56.9696 39.2797 56.7195 39.8501 56.228L39.3392 55.3966C38.9358 55.7385 38.436 55.9284 37.9189 55.9364C37.5676 55.9684 37.2184 55.8542 36.9456 55.6183C36.6727 55.3824 36.4977 55.0434 36.4577 54.6733H40.0851C40.0851 54.5329 40.0851 54.3926 40.0851 54.2414C40.0851 52.6219 39.1348 51.5423 37.7656 51.5423L37.7503 51.5315ZM37.7503 52.5356C37.9093 52.532 38.0675 52.5615 38.2157 52.6225C38.3639 52.6836 38.4992 52.7748 38.6141 52.8911C38.7289 53.0074 38.8209 53.1465 38.8848 53.3004C38.9488 53.4542 38.9834 53.6199 38.9867 53.788H36.4322C36.4507 53.4414 36.5969 53.1163 36.8394 52.8822C37.0819 52.6482 37.4016 52.5237 37.7299 52.5356H37.7503ZM64.3733 54.2414V49.5881H63.3515V52.2872C63.171 52.0419 62.9379 51.8454 62.6714 51.714C62.4049 51.5826 62.1127 51.52 61.8188 51.5315C61.1413 51.5315 60.4915 51.8159 60.0125 52.322C59.5334 52.8282 59.2643 53.5148 59.2643 54.2306C59.2643 54.9465 59.5334 55.633 60.0125 56.1392C60.4915 56.6454 61.1413 56.9297 61.8188 56.9297C62.1127 56.9412 62.4049 56.8786 62.6714 56.7472C62.9379 56.6158 63.171 56.4193 63.3515 56.174V56.8002H64.3733V54.2414ZM66.1461 56.0714C66.2125 56.0705 66.2785 56.0834 66.3402 56.1092C66.3989 56.1345 66.4526 56.1711 66.4986 56.2172C66.5435 56.2637 66.5799 56.3186 66.6059 56.3791C66.6318 56.4421 66.6451 56.5101 66.6451 56.5788C66.6451 56.6475 66.6318 56.7155 66.6059 56.7786C66.5799 56.8391 66.5435 56.894 66.4986 56.9405C66.4526 56.9866 66.3989 57.0232 66.3402 57.0485C66.2791 57.077 66.2129 57.0917 66.1461 57.0917C66.0492 57.0909 65.9546 57.0611 65.8732 57.0056C65.7918 56.9502 65.727 56.8714 65.6863 56.7786C65.6607 56.7154 65.6475 56.6475 65.6475 56.5788C65.6475 56.5102 65.6607 56.4422 65.6863 56.3791C65.7123 56.3186 65.7487 56.2637 65.7936 56.2172C65.8396 56.1711 65.8933 56.1345 65.9519 56.1092C66.0185 56.0812 66.0899 56.0683 66.1614 56.0714H66.1461ZM66.1461 56.9837C66.1971 56.984 66.2476 56.973 66.2942 56.9513C66.3382 56.9306 66.3781 56.9013 66.4118 56.8649C66.4757 56.7913 66.5111 56.695 66.5111 56.595C66.5111 56.4951 66.4757 56.3988 66.4118 56.3251C66.3782 56.2887 66.3383 56.2594 66.2942 56.2387C66.2475 56.2172 66.1971 56.2062 66.1461 56.2064C66.0952 56.2066 66.0448 56.2177 65.9979 56.2387C65.952 56.2586 65.9103 56.288 65.8753 56.3251C65.8114 56.3988 65.776 56.4951 65.776 56.595C65.776 56.695 65.8114 56.7913 65.8753 56.8649C65.9104 56.9019 65.9521 56.9313 65.9979 56.9513C66.0495 56.9748 66.1053 56.9859 66.1614 56.9837H66.1461ZM66.1767 56.3413C66.2244 56.3389 66.2714 56.3541 66.3096 56.3845C66.3252 56.3982 66.3375 56.4156 66.3455 56.4353C66.3535 56.455 66.357 56.4765 66.3556 56.4979C66.3563 56.5158 66.3535 56.5337 66.3473 56.5504C66.3412 56.5671 66.3318 56.5823 66.3198 56.595C66.2902 56.6234 66.2524 56.6406 66.2125 56.6436L66.3607 56.8218H66.2432L66.1052 56.6436H66.0592V56.8218H65.9622V56.3467L66.1767 56.3413ZM66.0643 56.4331V56.5626H66.1767C66.1967 56.5689 66.218 56.5689 66.238 56.5626C66.2416 56.5551 66.2435 56.5468 66.2435 56.5383C66.2435 56.5299 66.2416 56.5216 66.238 56.5141C66.2416 56.5065 66.2435 56.4982 66.2435 56.4898C66.2435 56.4813 66.2416 56.473 66.238 56.4655C66.218 56.4592 66.1967 56.4592 66.1767 56.4655L66.0643 56.4331ZM60.4445 54.2414C60.4614 53.9376 60.5621 53.6457 60.734 53.4016C60.906 53.1575 61.1418 52.9719 61.4123 52.8676C61.6829 52.7633 61.9764 52.7449 62.2567 52.8146C62.5371 52.8843 62.792 53.0392 62.9901 53.26C63.1882 53.4809 63.3208 53.7582 63.3717 54.0577C63.4225 54.3572 63.3894 54.6659 63.2763 54.9458C63.1632 55.2256 62.9751 55.4644 62.7352 55.6328C62.4953 55.8011 62.2141 55.8917 61.9261 55.8933C61.7238 55.896 61.5231 55.8544 61.3368 55.7712C61.1504 55.688 60.9824 55.565 60.8432 55.4098C60.7041 55.2547 60.5968 55.0708 60.5282 54.8697C60.4596 54.6686 60.431 54.4547 60.4445 54.2414ZM24.564 54.2414V51.6611H23.5013V52.2872C23.3209 52.0419 23.0878 51.8454 22.8213 51.714C22.5548 51.5826 22.2625 51.52 21.9686 51.5315C21.2911 51.5315 20.6414 51.8159 20.1623 52.322C19.6833 52.8282 19.4141 53.5148 19.4141 54.2306C19.4141 54.9465 19.6833 55.633 20.1623 56.1392C20.6414 56.6454 21.2911 56.9297 21.9686 56.9297C22.2625 56.9412 22.5548 56.8786 22.8213 56.7472C23.0878 56.6158 23.3209 56.4193 23.5013 56.174V56.8002H24.564V54.2414ZM20.6096 54.2414C20.6266 53.9376 20.7272 53.6457 20.8992 53.4016C21.0712 53.1575 21.307 52.9719 21.5775 52.8676C21.8481 52.7633 22.1416 52.7449 22.4219 52.8146C22.7023 52.8843 22.9572 53.0392 23.1553 53.26C23.3534 53.4809 23.486 53.7582 23.5369 54.0577C23.5877 54.3572 23.5546 54.6659 23.4415 54.9458C23.3284 55.2256 23.1403 55.4644 22.9004 55.6328C22.6605 55.8011 22.3792 55.8917 22.0913 55.8933C21.8881 55.8975 21.6864 55.857 21.4988 55.7745C21.3112 55.692 21.1419 55.5692 21.0017 55.4138C20.8614 55.2585 20.7532 55.0741 20.684 54.8723C20.6147 54.6704 20.5859 54.4556 20.5994 54.2414H20.6096Z" fill="#231F20"/>
<path d="M45.5466 12.3348H29.4532V42.8942H45.5466V12.3348Z" fill="#FF5F00"/>
<path d="M30.4751 27.6169C30.4721 24.6733 31.1031 21.7677 32.3202 19.12C33.5372 16.4723 35.3086 14.1519 37.5 12.3345C34.7866 10.0814 31.5281 8.68031 28.0968 8.29141C24.6656 7.9025 21.2 8.54144 18.0961 10.1352C14.9922 11.729 12.3753 14.2133 10.5445 17.3042C8.71369 20.395 7.7428 23.9678 7.7428 27.6142C7.7428 31.2605 8.71369 34.8333 10.5445 37.9242C12.3753 41.015 14.9922 43.4993 18.0961 45.0931C21.2 46.6869 24.6656 47.3258 28.0968 46.9369C31.5281 46.548 34.7866 45.1469 37.5 42.8938C35.3092 41.077 33.5383 38.7575 32.3213 36.1107C31.1042 33.464 30.4729 30.5594 30.4751 27.6169Z" fill="#EB001B"/>
<path d="M67.2599 27.6173C67.2598 31.2639 66.2887 34.8369 64.4575 37.9279C62.6264 41.0189 60.0091 43.5031 56.9049 45.0966C53.8006 46.6902 50.3346 47.3287 46.9032 46.9393C43.4717 46.5498 40.2131 45.148 37.5 42.8942C39.6899 41.0758 41.4603 38.7556 42.6776 36.1088C43.895 33.4619 44.5276 30.5574 44.5276 27.6146C44.5276 24.6717 43.895 21.7672 42.6776 19.1204C41.4603 16.4735 39.6899 14.1533 37.5 12.3349C40.2131 10.0811 43.4717 8.67934 46.9032 8.28988C50.3346 7.90041 53.8006 8.53894 56.9049 10.1325C60.0091 11.726 62.6264 14.2103 64.4575 17.3013C66.2887 20.3923 67.2598 23.9653 67.2599 27.6119V27.6173Z" fill="#F79E1B"/>
<path d="M65.5024 39.6553V39.0291H65.7425V38.8995H65.1345V39.0291H65.3951V39.6553H65.5024ZM66.6825 39.6553V38.8995H66.4986L66.284 39.4394L66.0695 38.8995H65.906V39.6553H66.0388V39.0885L66.2381 39.5797H66.376L66.5752 39.0885V39.6607L66.6825 39.6553Z" fill="#F79E1B"/>
</svg>
