<svg width="70" height="50" viewBox="0 0 70 50" fill="none" xmlns="http://www.w3.org/2000/svg">
<path d="M70 50H0V7.62939e-06H70V50Z" fill="white"/>
<path d="M1.16565 41.8756H68.833V48.6973H1.16565V41.8756Z" fill="#F7B600"/>
<path d="M1.16565 8.13318H68.833V1.31152H1.16565V8.13318Z" fill="#1A1F71"/>
<path d="M34.4158 15.6488L30.849 34.3993H26.5349L30.102 15.6488H34.4158ZM52.5652 27.7566L54.8363 20.7148L56.1427 27.7566H52.5652ZM57.3806 34.3993H61.3696L57.8846 15.6488H54.2047C53.3754 15.6488 52.6767 16.1896 52.3672 17.0234L45.8938 34.3993H50.4244L51.324 31.5992H56.8579L57.3806 34.3993ZM46.1184 28.2776C46.1375 23.3294 40.0352 23.055 40.0757 20.8442C40.089 20.1722 40.6587 19.4565 41.9048 19.2736C42.5228 19.1839 44.2271 19.1118 46.1596 20.1128L46.9153 16.1349C45.8773 15.713 44.5418 15.3063 42.8802 15.3063C38.6154 15.3063 35.6152 17.8535 35.5912 21.5041C35.564 24.2036 37.7343 25.7086 39.366 26.6076C41.0486 27.5266 41.6125 28.1162 41.6044 28.9372C41.5927 30.1951 40.2624 30.752 39.0244 30.7731C36.8538 30.811 35.5964 30.1135 34.5937 29.588L33.8107 33.6985C34.8202 34.2182 36.6804 34.6704 38.6067 34.6937C43.1405 34.6937 46.1051 32.1761 46.1184 28.2776ZM28.2515 15.6488L21.2616 34.3993H16.7019L13.2618 19.435C13.0534 18.5149 12.8716 18.1767 12.2374 17.7879C11.2001 17.1542 9.48734 16.5617 7.98169 16.1929L8.08345 15.6488H15.4244C16.3593 15.6488 17.2006 16.3485 17.4145 17.5594L19.2316 28.4107L23.7194 15.6488H28.2515Z" fill="#1A1F71"/>
</svg>
